<svg id="Layer_1" data-name="Layer 1" xmlns="http://www.w3.org/2000/svg" viewBox="0 0 212.25 216.99"><defs><style>.cls-1{fill:#4d4d4d;}</style></defs><title>logo-v2</title><path class="cls-1" d="M71.68,158.58c12.83-6.6,27.07-10,41-13.62,13.49-3.48,27-6.84,40.8-9.05,28.57-4.58,58.28-4.1,86.88.07a204.22,204.22,0,0,1,20.24,3.77c5.52,1.39,13.58,3.27,16.35,8.92,2.95,6-5,13.05-9.22,16.51-5,4.11-10.68,7.18-16.39,10.1a430,430,0,0,1-77,30.25c-29.43,8.47-59.37,13.11-89.46,18.35-.44.07-.33.78.1.77,29.79-.76,59.88-7.51,88.36-15.83a532.8,532.8,0,0,0,83.58-32.09c9.38-4.56,24.35-12,26-23.79,1.59-11.25-12.52-16.1-20.95-18.16-30.45-7.44-62.72-7.79-93.68-4a363.17,363.17,0,0,0-50.83,10.15c-15.93,4.3-32,8.24-46.37,16.61a.62.62,0,0,0,.63,1.06Z" transform="translate(-70.75 -45.58)"/><path class="cls-1" d="M147.2,81.66c-1.24,30-4.49,59.75-8.3,89.55-1.9,14.88-4,29.81-7.31,44.44a248.9,248.9,0,0,1-14,41.85c0,.08.09.16.13.07,12.26-27,17.61-55.21,22.2-84.3,4.74-30.07,12.51-61,10.58-91.61a1.67,1.67,0,0,0-3.33,0Z" transform="translate(-70.75 -45.58)"/><path class="cls-1" d="M233.22,46.57c-6.33,17.93-11.93,36.07-18.57,53.9s-13.58,35.27-20.39,52.89c-14.06,36.31-28.56,72.48-42,109-.06.14.19.25.25.1,15.06-35.64,29.09-71.73,43.54-107.62,7.2-17.86,14.3-35.76,21.62-53.57,7.18-17.45,14.92-35.32,18.26-54a1.41,1.41,0,0,0-2.71-.75Z" transform="translate(-70.75 -45.58)"/><path class="cls-1" d="M71.75,158.92c24-12,52.63-17.67,79.36-17.48,5.76,0,14-.6,19.09,2.61,8.53,5.41-6,16.36-10.38,19.8-12,9.52-26.13,16.09-39.92,22.65-.85.41-.1,1.62.74,1.26,13-5.53,26-11.19,37.56-19.3,6.16-4.31,22.57-14.89,16.79-24.25-4.92-8-20.23-7-28.16-6.83-12.67.31-25.32,2.78-37.55,6a171.24,171.24,0,0,0-38,14.71c-.56.3-.06,1.13.5.84Z" transform="translate(-70.75 -45.58)"/><path class="cls-1" d="M260.82,136.34c-13.32,2-28.67,5-38.73,14.79-2.6,2.53-7.34,7.71-5.48,11.74,2.4,5.18,11.07,2.49,14.67.51,1.16-.64.35-2.74-.93-2.21a22.84,22.84,0,0,1-3.22,1.15c-3.45.85-4.35,1.08-6.06-1.78s-1.33-1.66-.43-3.74a12.27,12.27,0,0,1,2.34-3.06,35.72,35.72,0,0,1,10.11-7.51c8.67-4.56,18.5-6.89,28.09-8.57.87-.16.49-1.44-.36-1.32Z" transform="translate(-70.75 -45.58)"/><path class="cls-1" d="M230.06,157.67c3.2-1.83,18.93-7.7,15.18,2.11-1.28,3.33-4.64,6.53-7.1,9C232,175,224.74,180,217.3,184.44c-14,8.4-29.36,14.16-43.41,22.37-.26.15,0,.49.22.38,19.35-8.25,39.38-17.32,56.54-29.58,6.48-4.63,15.6-11.34,18-19.39,3.36-11.12-15.76-3.95-19.33-1.74a.69.69,0,0,0,.7,1.19Z" transform="translate(-70.75 -45.58)"/></svg>